<svg width="28" height="29" viewBox="0 0 28 29" fill="none" xmlns="http://www.w3.org/2000/svg">
<path fill-rule="evenodd" clip-rule="evenodd" d="M9.36182 10.828C9.36182 13.5701 11.5848 15.793 14.3269 15.793C17.0689 15.793 19.2919 13.5701 19.2919 10.828C19.2919 8.08593 17.0689 5.86296 14.3269 5.86296C11.5848 5.86296 9.36182 8.08593 9.36182 10.828ZM11.8443 10.828C11.8443 12.1991 12.9558 13.3105 14.3269 13.3105C15.6979 13.3105 16.8094 12.1991 16.8094 10.828C16.8094 9.4569 15.6979 8.34548 14.3269 8.34548C12.9558 8.34548 11.8443 9.4569 11.8443 10.828Z" fill="#5ABBF2"/>
<path fill-rule="evenodd" clip-rule="evenodd" d="M14.3269 0.89793C21.8677 0.89793 27.9808 7.01101 27.9808 14.5518C27.9808 22.0925 21.8677 28.2056 14.3269 28.2056C6.78614 28.2056 0.673065 22.0925 0.673065 14.5518C0.673065 7.01101 6.78614 0.89793 14.3269 0.89793ZM25.4982 14.5518C25.4982 17.1463 24.6138 19.5342 23.1299 21.4305C21.0888 18.7583 17.8691 17.0343 14.2469 17.0343C10.6717 17.0343 7.48857 18.7138 5.44384 21.3269C4.00833 19.4477 3.15558 17.0993 3.15558 14.5518C3.15558 8.38198 8.15711 3.38045 14.3269 3.38045C20.4967 3.38045 25.4982 8.38198 25.4982 14.5518ZM14.3269 25.7231C16.9959 25.7231 19.4462 24.7871 21.3677 23.2254C19.7965 20.983 17.1929 19.5168 14.2469 19.5168C11.3375 19.5168 8.76198 20.9469 7.18496 23.1424C9.1212 24.7538 11.6109 25.7231 14.3269 25.7231Z" fill="#5ABBF2"/>
</svg>
