<svg width="20" height="29" viewBox="0 0 20 29" fill="none" xmlns="http://www.w3.org/2000/svg">
<path d="M10.4426 12.9877C12.2029 12.9877 13.6285 11.562 13.6285 9.8018C13.6285 8.04159 12.2029 6.6159 10.4426 6.6159C8.68243 6.6159 7.25674 8.04159 7.25674 9.8018C7.25674 11.562 8.68243 12.9877 10.4426 12.9877Z" fill="#5ABBF2"/>
<path fill-rule="evenodd" clip-rule="evenodd" d="M20 9.80178C20 14.5376 16.556 18.469 12.0353 19.2272V27.3242C12.0353 28.2035 11.3216 28.9172 10.4423 28.9172C9.563 28.9172 8.84936 28.2035 8.84936 27.3242V19.2272C4.32857 18.469 0.884613 14.5376 0.884613 9.80178C0.884613 4.52274 5.16327 0.244083 10.4423 0.244083C15.7213 0.244083 20 4.52274 20 9.80178ZM10.4423 16.1736C13.9611 16.1736 16.8141 13.3206 16.8141 9.80178C16.8141 6.28295 13.9611 3.42998 10.4423 3.42998C6.92348 3.42998 4.07051 6.28295 4.07051 9.80178C4.07051 13.3206 6.92348 16.1736 10.4423 16.1736Z" fill="#5ABBF2"/>
</svg>
