<svg width="103" height="16" viewBox="0 0 103 16" fill="none" xmlns="http://www.w3.org/2000/svg">
<path d="M92.0244 15C91.771 15 91.5777 14.8933 91.4444 14.68C91.311 14.4533 91.3044 14.2267 91.4244 14L94.7644 7.75999C94.8177 7.67999 94.8177 7.57999 94.7644 7.45999L91.5244 1.39999C91.4044 1.17333 91.411 0.953327 91.5444 0.739993C91.6777 0.513327 91.871 0.399994 92.1244 0.399994H92.9844C93.331 0.399994 93.651 0.493327 93.9444 0.679994C94.2377 0.86666 94.4577 1.11333 94.6044 1.41999L96.7044 5.83999C96.7044 5.85333 96.711 5.85999 96.7244 5.85999C96.7377 5.85999 96.7444 5.85333 96.7444 5.83999L98.8444 1.41999C98.991 1.11333 99.211 0.86666 99.5044 0.679994C99.7977 0.493327 100.118 0.399994 100.464 0.399994H101.244C101.511 0.399994 101.704 0.513327 101.824 0.739993C101.958 0.953327 101.964 1.17333 101.844 1.39999L98.6044 7.45999C98.5644 7.55333 98.5644 7.65333 98.6044 7.75999L101.944 14C102.064 14.2267 102.058 14.4533 101.924 14.68C101.804 14.8933 101.611 15 101.344 15H100.424C100.078 15 99.751 14.9067 99.4444 14.72C99.151 14.5333 98.9377 14.2867 98.8044 13.98L96.6644 9.35999C96.6644 9.34666 96.6577 9.33999 96.6444 9.33999C96.631 9.33999 96.6244 9.34666 96.6244 9.35999L94.4844 13.98C94.351 14.2867 94.131 14.5333 93.8244 14.72C93.531 14.9067 93.211 15 92.8644 15H92.0244Z" fill="white"/>
<path d="M82.5887 15C82.2821 15 82.0154 14.8867 81.7887 14.66C81.5621 14.4333 81.4487 14.1667 81.4487 13.86V5.74001C81.4487 5.43334 81.5621 5.16667 81.7887 4.94001C82.0154 4.71334 82.2821 4.60001 82.5887 4.60001H82.9887C83.2954 4.60001 83.5621 4.71334 83.7887 4.94001C84.0154 5.16667 84.1287 5.43334 84.1287 5.74001V6.58001C84.1287 6.59334 84.1354 6.60001 84.1487 6.60001C84.1754 6.60001 84.1887 6.59334 84.1887 6.58001C84.5754 6.04667 85.0821 5.61334 85.7087 5.28001C86.3354 4.93334 87.0221 4.72001 87.7687 4.64001C88.0487 4.61334 88.2887 4.70667 88.4887 4.92001C88.6887 5.12001 88.7887 5.36001 88.7887 5.64001C88.7887 5.92001 88.6887 6.16001 88.4887 6.36001C88.2887 6.56001 88.0487 6.67334 87.7687 6.70001C85.4087 6.88667 84.2287 8.08667 84.2287 10.3V13.86C84.2287 14.1667 84.1154 14.4333 83.8887 14.66C83.6621 14.8867 83.3954 15 83.0887 15H82.5887Z" fill="white"/>
<path d="M73.1708 6.25999C72.4908 6.25999 71.9641 6.45333 71.5908 6.83999C71.2308 7.21333 71.0041 7.81999 70.9108 8.65999C70.9108 8.76666 70.9641 8.81999 71.0708 8.81999H74.9908C75.0974 8.81999 75.1508 8.76666 75.1508 8.65999C75.0974 7.05999 74.4374 6.25999 73.1708 6.25999ZM73.6708 15.2C71.9241 15.2 70.5774 14.7467 69.6308 13.84C68.6974 12.92 68.2308 11.5733 68.2308 9.79999C68.2308 8.03999 68.6508 6.69999 69.4908 5.77999C70.3308 4.85999 71.5441 4.39999 73.1308 4.39999C76.0908 4.39999 77.6108 6.07999 77.6908 9.43999C77.7041 9.75999 77.5908 10.0267 77.3508 10.24C77.1108 10.4533 76.8308 10.56 76.5108 10.56H71.0508C70.9308 10.56 70.8841 10.62 70.9108 10.74C71.0041 11.6333 71.2974 12.2867 71.7908 12.7C72.2974 13.1 73.0308 13.3 73.9908 13.3C74.5908 13.3 75.2574 13.2 75.9908 13C76.2308 12.9333 76.4508 12.9733 76.6508 13.12C76.8641 13.2667 76.9708 13.4667 76.9708 13.72C76.9708 14.0267 76.8774 14.3 76.6908 14.54C76.5174 14.7667 76.2841 14.9067 75.9908 14.96C75.2441 15.12 74.4708 15.2 73.6708 15.2Z" fill="white"/>
<path d="M56.5391 15C56.2324 15 55.9657 14.8867 55.7391 14.66C55.5257 14.4333 55.4191 14.1667 55.4191 13.86V1.14C55.4191 0.833334 55.5257 0.566667 55.7391 0.34C55.9657 0.113333 56.2324 0 56.5391 0H56.9391C57.2457 0 57.5124 0.113333 57.7391 0.34C57.9657 0.566667 58.0791 0.833334 58.0791 1.14V5.78C58.0791 5.79333 58.0857 5.8 58.0991 5.8C58.1124 5.8 58.1257 5.79333 58.1391 5.78C59.0724 4.86 60.0991 4.4 61.2191 4.4C62.4324 4.4 63.3124 4.74667 63.8591 5.44C64.4057 6.13333 64.6791 7.32 64.6791 9V13.86C64.6791 14.1667 64.5657 14.4333 64.3391 14.66C64.1124 14.8867 63.8457 15 63.5391 15H63.2191C62.9124 15 62.6457 14.8867 62.4191 14.66C62.1924 14.4333 62.0791 14.1667 62.0791 13.86V9.4C62.0791 8.24 61.9524 7.47333 61.6991 7.1C61.4591 6.72667 60.9991 6.54 60.3191 6.54C59.7857 6.54 59.2791 6.78 58.7991 7.26C58.3191 7.74 58.0791 8.25333 58.0791 8.8V13.86C58.0791 14.1667 57.9657 14.4333 57.7391 14.66C57.5124 14.8867 57.2457 15 56.9391 15H56.5391Z" fill="white"/>
<path d="M43.7103 6.94001C43.4436 6.94001 43.217 6.84668 43.0303 6.66001C42.8436 6.46001 42.7503 6.22668 42.7503 5.96001C42.7503 5.69335 42.8436 5.46668 43.0303 5.28001C43.217 5.09335 43.4436 5.00001 43.7103 5.00001H44.6703C44.7903 5.00001 44.8503 4.94001 44.8503 4.82001V2.34001C44.8503 2.03335 44.957 1.76668 45.1703 1.54001C45.397 1.31335 45.6636 1.20001 45.9703 1.20001H46.3703C46.677 1.20001 46.9436 1.31335 47.1703 1.54001C47.397 1.76668 47.5103 2.03335 47.5103 2.34001V4.82001C47.5103 4.94001 47.5703 5.00001 47.6903 5.00001H49.9703C50.237 5.00001 50.4636 5.09335 50.6503 5.28001C50.8503 5.46668 50.9503 5.69335 50.9503 5.96001C50.9503 6.22668 50.8503 6.46001 50.6503 6.66001C50.4636 6.84668 50.237 6.94001 49.9703 6.94001H47.6903C47.5703 6.94001 47.5103 6.99335 47.5103 7.10001V11.14C47.5103 12.0067 47.6036 12.5667 47.7903 12.82C47.977 13.0733 48.3636 13.2 48.9503 13.2C49.2703 13.2 49.5103 13.1867 49.6703 13.16C49.937 13.1333 50.1703 13.1933 50.3703 13.34C50.5703 13.4867 50.6703 13.6867 50.6703 13.94C50.6703 14.2333 50.5703 14.5 50.3703 14.74C50.1836 14.9667 49.9503 15.0933 49.6703 15.12C49.0836 15.1733 48.6436 15.2 48.3503 15.2C47.057 15.2 46.1503 14.9267 45.6303 14.38C45.1103 13.82 44.8503 12.8267 44.8503 11.4V7.10001C44.8503 6.99335 44.7903 6.94001 44.6703 6.94001H43.7103Z" fill="white"/>
<path d="M35.9448 9.99999C34.0382 9.99999 33.0848 10.5867 33.0848 11.76C33.0848 12.1867 33.2048 12.5333 33.4448 12.8C33.6982 13.0667 34.0182 13.2 34.4048 13.2C35.1648 13.2 35.7782 12.9667 36.2448 12.5C36.7115 12.02 36.9448 11.3667 36.9448 10.54V10.18C36.9448 10.06 36.8848 9.99999 36.7648 9.99999H35.9448ZM33.6848 15.2C32.7782 15.2 32.0248 14.9067 31.4248 14.32C30.8382 13.72 30.5448 12.9467 30.5448 12C30.5448 10.84 30.9848 9.93999 31.8648 9.29999C32.7582 8.65999 34.1182 8.33999 35.9448 8.33999H36.7648C36.8848 8.33999 36.9448 8.27999 36.9448 8.15999V7.99999C36.9448 7.38666 36.7982 6.95999 36.5048 6.71999C36.2115 6.46666 35.6915 6.33999 34.9448 6.33999C34.1715 6.33999 33.2248 6.47999 32.1048 6.75999C31.8648 6.82666 31.6448 6.78666 31.4448 6.63999C31.2448 6.47999 31.1448 6.27333 31.1448 6.01999C31.1448 5.71333 31.2382 5.43999 31.4248 5.19999C31.6115 4.94666 31.8515 4.79333 32.1448 4.73999C33.1582 4.51333 34.1115 4.39999 35.0048 4.39999C36.7115 4.39999 37.9048 4.70666 38.5848 5.31999C39.2648 5.93333 39.6048 7.00666 39.6048 8.53999V13.86C39.6048 14.1667 39.4915 14.4333 39.2648 14.66C39.0515 14.8867 38.7915 15 38.4848 15H38.2648C37.9448 15 37.6715 14.8933 37.4448 14.68C37.2182 14.4533 37.0982 14.18 37.0848 13.86V13.58C37.0848 13.5667 37.0782 13.56 37.0648 13.56C37.0382 13.56 37.0248 13.5667 37.0248 13.58C36.2115 14.66 35.0982 15.2 33.6848 15.2Z" fill="white"/>
<path d="M22.7669 6.25999C22.0869 6.25999 21.5602 6.45333 21.1869 6.83999C20.8269 7.21333 20.6002 7.81999 20.5069 8.65999C20.5069 8.76666 20.5602 8.81999 20.6669 8.81999H24.5869C24.6935 8.81999 24.7469 8.76666 24.7469 8.65999C24.6935 7.05999 24.0335 6.25999 22.7669 6.25999ZM23.2669 15.2C21.5202 15.2 20.1735 14.7467 19.2269 13.84C18.2935 12.92 17.8269 11.5733 17.8269 9.79999C17.8269 8.03999 18.2469 6.69999 19.0869 5.77999C19.9269 4.85999 21.1402 4.39999 22.7269 4.39999C25.6869 4.39999 27.2069 6.07999 27.2869 9.43999C27.3002 9.75999 27.1869 10.0267 26.9469 10.24C26.7069 10.4533 26.4269 10.56 26.1069 10.56H20.6469C20.5269 10.56 20.4802 10.62 20.5069 10.74C20.6002 11.6333 20.8935 12.2867 21.3869 12.7C21.8935 13.1 22.6269 13.3 23.5869 13.3C24.1869 13.3 24.8535 13.2 25.5869 13C25.8269 12.9333 26.0469 12.9733 26.2469 13.12C26.4602 13.2667 26.5669 13.4667 26.5669 13.72C26.5669 14.0267 26.4735 14.3 26.2869 14.54C26.1135 14.7667 25.8802 14.9067 25.5869 14.96C24.8402 15.12 24.0669 15.2 23.2669 15.2Z" fill="white"/>
<path d="M2.89997 13.9L0.89997 5.70001C0.833303 5.42001 0.886637 5.16667 1.05997 4.94001C1.24664 4.71334 1.47997 4.60001 1.75997 4.60001H2.25997C2.5933 4.60001 2.88664 4.70667 3.13997 4.92001C3.3933 5.13334 3.54664 5.40001 3.59997 5.72001L4.83997 12.78C4.83997 12.7933 4.84664 12.8 4.85997 12.8C4.88664 12.8 4.89997 12.7933 4.89997 12.78L6.15997 5.72001C6.22664 5.40001 6.38664 5.13334 6.63997 4.92001C6.8933 4.70667 7.17997 4.60001 7.49997 4.60001H8.49997C8.8333 4.60001 9.12664 4.70667 9.37997 4.92001C9.6333 5.13334 9.78664 5.40001 9.83997 5.72001L11.1 12.78C11.1 12.7933 11.1133 12.8 11.14 12.8C11.1533 12.8 11.16 12.7933 11.16 12.78L12.4 5.72001C12.4666 5.40001 12.6266 5.13334 12.88 4.92001C13.1333 4.70667 13.42 4.60001 13.74 4.60001H14.16C14.4533 4.60001 14.6866 4.71334 14.86 4.94001C15.0466 5.16667 15.1 5.42001 15.02 5.70001L13.02 13.9C12.94 14.22 12.7666 14.4867 12.5 14.7C12.2466 14.9 11.9533 15 11.62 15H10.62C10.3 15 10.0133 14.8933 9.75997 14.68C9.50664 14.4667 9.34664 14.2 9.27997 13.88L7.97997 7.02001C7.97997 7.00667 7.9733 7.00001 7.95997 7.00001C7.94664 7.00001 7.93997 7.00667 7.93997 7.02001L6.63997 13.88C6.58664 14.2 6.4333 14.4667 6.17997 14.68C5.92664 14.8933 5.6333 15 5.29997 15H4.29997C3.97997 15 3.68664 14.9 3.41997 14.7C3.1533 14.4867 2.97997 14.22 2.89997 13.9Z" fill="white"/>
</svg>
